<?xml version="1.0" encoding="UTF-8"?>
<svg version="1.1" xmlns="http://www.w3.org/2000/svg" width="64" height="64">
<path d="M0 0 C2.25 -0.3125 2.25 -0.3125 5 0 C6.9375 2.1875 6.9375 2.1875 9 5 C9.99 5.825 10.98 6.65 12 7.5 C14.78194649 9.81828874 16.7891777 12.15751418 19 15 C19.66 15.33 20.32 15.66 21 16 C21 17.65 21 19.3 21 21 C19.58398286 21.48108275 18.16715563 21.95978141 16.75 22.4375 C15.96109375 22.70433594 15.1721875 22.97117187 14.359375 23.24609375 C12.25178012 23.91954708 10.15246027 24.49150595 8 25 C8.10699219 25.6290625 8.21398438 26.258125 8.32421875 26.90625 C9.17781442 33.0007395 9.13709672 37.59454104 6 43 C0.78626479 49.17416012 -3.72219644 51.25628935 -11.59765625 51.984375 C-13.93270969 51.99956234 -15.77604368 51.67797283 -18 51 C-18.20496094 51.77085938 -18.40992187 52.54171875 -18.62109375 53.3359375 C-18.89050781 54.33882812 -19.15992187 55.34171875 -19.4375 56.375 C-19.70433594 57.37273438 -19.97117187 58.37046875 -20.24609375 59.3984375 C-21 62 -21 62 -22 64 C-24.1875 64.375 -24.1875 64.375 -27 64 C-29.5 61.3125 -29.5 61.3125 -30.75390625 59.6484375 C-33.47003784 56.05531044 -36.737762 53.19364061 -40.3125 50.5 C-43 48 -43 48 -43.375 45.1875 C-43.189375 44.1046875 -43.189375 44.1046875 -43 43 C-41.58398286 42.51891725 -40.16715563 42.04021859 -38.75 41.5625 C-37.96109375 41.29566406 -37.1721875 41.02882812 -36.359375 40.75390625 C-34.25178012 40.08045292 -32.15246027 39.50849405 -30 39 C-30.10699219 38.3709375 -30.21398438 37.741875 -30.32421875 37.09375 C-31.17781442 30.9992605 -31.13709672 26.40545896 -28 21 C-22.78626479 14.82583988 -18.27780356 12.74371065 -10.40234375 12.015625 C-8.06729031 12.00043766 -6.22395632 12.32202717 -4 13 C-3.79503906 12.22914062 -3.59007812 11.45828125 -3.37890625 10.6640625 C-3.10949219 9.66117188 -2.84007812 8.65828125 -2.5625 7.625 C-2.29566406 6.62726562 -2.02882812 5.62953125 -1.75390625 4.6015625 C-1 2 -1 2 0 0 Z " fill="#0F070E" transform="translate(43,0)"/>
<path d="M0 0 C0 11.22 0 22.44 0 34 C-1.98 33.34 -3.96 32.68 -6 32 C-6.66 32 -7.32 32 -8 32 C-8.99 33.98 -9.98 35.96 -11 38 C-10.34 38 -9.68 38 -9 38 C-8.67 36.35 -8.34 34.7 -8 33 C-7.67 33 -7.34 33 -7 33 C-6.6309795 42.41002278 -6.6309795 42.41002278 -9 47 C-13.60388182 43.24172913 -17.58816922 39.37336029 -21.421875 34.83203125 C-22.88104785 33.13809049 -24.39822318 31.55835516 -26 30 C-23.35261084 28.5393715 -22.10551666 28 -19 28 C-18.67 27.01 -18.34 26.02 -18 25 C-17.01 24.67 -16.02 24.34 -15 24 C-15.10699219 23.3709375 -15.21398438 22.741875 -15.32421875 22.09375 C-16.17650754 16.00859135 -16.1473986 11.39382432 -13 6 C-6.62962963 -1.32592593 -6.62962963 -1.32592593 0 0 Z " fill="#22141E" transform="translate(28,15)"/>
<path d="M0 0 C0.99 0 1.98 0 3 0 C3 11.88 3 23.76 3 36 C4.98 36 6.96 36 9 36 C9 24.78 9 13.56 9 2 C9.33 2 9.66 2 10 2 C10 13.22 10 24.44 10 36 C11.98 35.505 11.98 35.505 14 35 C13.67 35.99 13.34 36.98 13 38 C11.41773035 38.19627391 9.83410729 38.38165538 8.25 38.5625 C6.92742188 38.71912109 6.92742188 38.71912109 5.578125 38.87890625 C3.11567549 38.99456676 1.33461936 38.73638695 -1 38 C-1.20496094 38.77085938 -1.40992187 39.54171875 -1.62109375 40.3359375 C-1.89050781 41.33882812 -2.15992187 42.34171875 -2.4375 43.375 C-2.70433594 44.37273438 -2.97117187 45.37046875 -3.24609375 46.3984375 C-4 49 -4 49 -5 51 C-7.1875 51.375 -7.1875 51.375 -10 51 C-12.5 48.3125 -12.5 48.3125 -13.75390625 46.6484375 C-16.47003784 43.05531044 -19.737762 40.19364061 -23.3125 37.5 C-26 35 -26 35 -26.375 32.1875 C-26.25125 31.465625 -26.1275 30.74375 -26 30 C-22.86501708 28.14223235 -20.62528568 27.79859524 -17 28 C-17 28.66 -17 29.32 -17 30 C-18.98 30.66 -20.96 31.32 -23 32 C-19.18913054 36.66831508 -15.26922468 40.66352155 -10.63671875 44.51953125 C-9 46 -9 46 -8 48 C-5.90649311 44.5980513 -5.82057837 41.94727588 -6 38 C-6.33 38.66 -6.66 39.32 -7 40 C-7.66 40 -8.32 40 -9 40 C-7.25 34.25 -7.25 34.25 -5 32 C-2.69 33.32 -0.38 34.64 2 36 C2 24.78 2 13.56 2 2 C1.01 1.67 0.02 1.34 -1 1 C-0.67 0.67 -0.34 0.34 0 0 Z " fill="#070408" transform="translate(26,13)"/>
<path d="M0 0 C0.99 0 1.98 0 3 0 C3 10.56 3 21.12 3 32 C1.35 31.67 -0.3 31.34 -2 31 C-2 29.02 -2 27.04 -2 25 C-2.66 25 -3.32 25 -4 25 C-4.33 25.99 -4.66 26.98 -5 28 C-9.4600488 22.37646021 -9.75860473 17.0071121 -9 10 C-7.94014955 7.46599393 -6.85559915 6.08052026 -5 4 C-4.67 4 -4.34 4 -4 4 C-4 9.94 -4 15.88 -4 22 C-3.34 22 -2.68 22 -2 22 C-2.01047363 21.40461426 -2.02094727 20.80922852 -2.03173828 20.19580078 C-2.07323949 17.50557657 -2.09930704 14.81541963 -2.125 12.125 C-2.14175781 11.18785156 -2.15851562 10.25070313 -2.17578125 9.28515625 C-2.18222656 8.38925781 -2.18867188 7.49335938 -2.1953125 6.5703125 C-2.20578613 5.74289551 -2.21625977 4.91547852 -2.22705078 4.06298828 C-2 2 -2 2 0 0 Z " fill="#FC92D1" transform="translate(24,16)"/>
<path d="M0 0 C1.32 0.33 2.64 0.66 4 1 C4.66 3.31 5.32 5.62 6 8 C6.66 6.68 7.32 5.36 8 4 C12.03628783 8.6669578 12.55736217 12.24152476 12.33203125 18.3671875 C11.90589935 21.7461628 10.92022561 24.19351641 9 27 C8.34 27.33 7.68 27.66 7 28 C7 22.39 7 16.78 7 11 C6.34 11 5.68 11 5 11 C5.01047363 11.56509277 5.02094727 12.13018555 5.03173828 12.71240234 C5.07324788 15.26655653 5.0993096 17.82063982 5.125 20.375 C5.14175781 21.26445313 5.15851562 22.15390625 5.17578125 23.0703125 C5.18222656 23.92109375 5.18867187 24.771875 5.1953125 25.6484375 C5.20578613 26.43395996 5.21625977 27.21948242 5.22705078 28.02880859 C5 30 5 30 3 32 C2.01 32 1.02 32 0 32 C0 21.44 0 10.88 0 0 Z " fill="#FD8FD0" transform="translate(37,16)"/>
<path d="M0 0 C1.98 0 3.96 0 6 0 C6 11.22 6 22.44 6 34 C4.02 34 2.04 34 0 34 C0 22.78 0 11.56 0 0 Z " fill="#F06AB9" transform="translate(29,15)"/>
<path d="M0 0 C0.89203125 0.01804688 1.7840625 0.03609375 2.703125 0.0546875 C3.71632813 0.08949219 3.71632813 0.08949219 4.75 0.125 C3.1 1.775 1.45 3.425 -0.25 5.125 C0.61625 4.63 0.61625 4.63 1.5 4.125 C3.75 3.125 3.75 3.125 7.75 3.125 C7.09 5.435 6.43 7.745 5.75 10.125 C6.41 10.125 7.07 10.125 7.75 10.125 C8.08 8.475 8.41 6.825 8.75 5.125 C9.08 5.125 9.41 5.125 9.75 5.125 C10.1190205 14.53502278 10.1190205 14.53502278 7.75 19.125 C3.14611818 15.36672913 -0.83816922 11.49836029 -4.671875 6.95703125 C-6.13104785 5.26309049 -7.64822318 3.68335516 -9.25 2.125 C-6.03817851 0.21891902 -3.71117397 -0.09766247 0 0 Z " fill="#C593E1" transform="translate(11.25,42.875)"/>
<path d="M0 0 C4.60388182 3.75827087 8.58816922 7.62663971 12.421875 12.16796875 C13.88104785 13.86190951 15.39822318 15.44164484 17 17 C12.35150485 19.3992233 8.08913926 19.19957409 3 19 C6 17 6 17 8 17 C8 16.34 8 15.68 8 15 C5.69 15.66 3.38 16.32 1 17 C1.875 11.25 1.875 11.25 3 9 C2.54625 9.45375 2.0925 9.9075 1.625 10.375 C0.41666667 11.58333333 -0.79166667 12.79166667 -2 14 C-2.05437607 12.41705218 -2.09296271 10.83355744 -2.125 9.25 C-2.14820313 8.36828125 -2.17140625 7.4865625 -2.1953125 6.578125 C-1.99139502 3.8864142 -1.36551721 2.30095026 0 0 Z " fill="#C593E1" transform="translate(45,2)"/>
<path d="M0 0 C0.66 0.33 1.32 0.66 2 1 C2.625 3.5625 2.625 3.5625 3 6 C3.66 5.01 4.32 4.02 5 3 C5.66 3 6.32 3 7 3 C6.88637738 4.4800841 6.75877092 5.95910074 6.625 7.4375 C6.55539063 8.26121094 6.48578125 9.08492187 6.4140625 9.93359375 C6.27742188 10.61550781 6.14078125 11.29742187 6 12 C5.01 12.495 5.01 12.495 4 13 C2.86649466 15.01669827 2.86649466 15.01669827 2 17 C1.81824219 16.43410156 1.63648438 15.86820313 1.44921875 15.28515625 C1.19785156 14.55167969 0.94648437 13.81820313 0.6875 13.0625 C0.32205078 11.96615234 0.32205078 11.96615234 -0.05078125 10.84765625 C-0.91240441 8.64067976 -0.91240441 8.64067976 -4 8 C-3.67 18.89 -3.34 29.78 -3 41 C-3.66 41 -4.32 41 -5 41 C-5 29.78 -5 18.56 -5 7 C-7.31 7 -9.62 7 -12 7 C-11.67 6.01 -11.34 5.02 -11 4 C-8.03 4.33 -5.06 4.66 -2 5 C-1.34 3.35 -0.68 1.7 0 0 Z " fill="#271723" transform="translate(41,8)"/>
<path d="M0 0 C2.25 -0.3125 2.25 -0.3125 5 0 C6.9375 2.1875 6.9375 2.1875 9 5 C9.99 5.825 10.98 6.65 12 7.5 C14.78194649 9.81828874 16.7891777 12.15751418 19 15 C19.66 15.33 20.32 15.66 21 16 C21 17.65 21 19.3 21 21 C18.64561267 22.42944945 17.51967567 23.08661261 14.75 22.625 C13.88375 22.315625 13.88375 22.315625 13 22 C14.25541557 19.48916886 15.50063488 19.12874554 18 18 C17.2575 17.443125 16.515 16.88625 15.75 16.3125 C13.06923252 14.05821825 11.17923657 11.72404571 9 9 C7.3603279 7.63360658 5.69672386 6.29486821 4 5 C3.34 4.34 2.68 3.68 2 3 C1.34 4.98 0.68 6.96 0 9 C-0.66 8.67 -1.32 8.34 -2 8 C-1.125 2.25 -1.125 2.25 0 0 Z " fill="#09060A" transform="translate(43,0)"/>
<path d="M0 0 C0.33 0 0.66 0 1 0 C1.06058594 1.26457031 1.12117188 2.52914063 1.18359375 3.83203125 C1.26800904 5.49219871 1.35265655 7.15235437 1.4375 8.8125 C1.47681641 9.64587891 1.51613281 10.47925781 1.55664062 11.33789062 C1.59853516 12.14033203 1.64042969 12.94277344 1.68359375 13.76953125 C1.72025146 14.50792236 1.75690918 15.24631348 1.79467773 16.00708008 C1.94842141 18.207495 1.94842141 18.207495 3 21 C2.34 21 1.68 21 1 21 C0.67 21.99 0.34 22.98 0 24 C-4.4600488 18.37646021 -4.75860473 13.0071121 -4 6 C-2.94014955 3.46599393 -1.85559915 2.08052026 0 0 Z " fill="#E768B3" transform="translate(19,20)"/>
<path d="M0 0 C4.89248794 4.73466575 4.89248794 4.73466575 5.203125 8.390625 C5.29514036 14.00356206 5.28661395 18.19648731 2 23 C1.34 23.33 0.68 23.66 0 24 C-0.19533059 20.9378174 -0.38153284 17.87553679 -0.5625 14.8125 C-0.61857422 13.94818359 -0.67464844 13.08386719 -0.73242188 12.19335938 C-0.9761489 7.95250921 -1.15770796 4.14202181 0 0 Z " fill="#DF4DA4" transform="translate(44,20)"/>
<path d="M0 0 C0.66 0 1.32 0 2 0 C2.33 5.28 2.66 10.56 3 16 C4.32 14.68 5.64 13.36 7 12 C7.33 12.66 7.66 13.32 8 14 C5.49876949 18.16871752 3.50584021 20.98422938 -1 23 C-1.66 22.67 -2.32 22.34 -3 22 C-2.01 20.515 -2.01 20.515 -1 19 C-0.63566627 16.87662229 -0.63566627 16.87662229 -0.5859375 14.55078125 C-0.54726563 13.70322266 -0.50859375 12.85566406 -0.46875 11.98242188 C-0.4378125 11.10134766 -0.406875 10.22027344 -0.375 9.3125 C-0.33632813 8.41982422 -0.29765625 7.52714844 -0.2578125 6.60742188 C-0.16359782 4.4051538 -0.07798412 2.20289278 0 0 Z " fill="#1C0F17" transform="translate(42,27)"/>
<path d="M0 0 C1.485 0.99 1.485 0.99 3 2 C3.51171875 5.2578125 3.51171875 5.2578125 3.6875 9.125 C3.75324219 10.40632813 3.81898437 11.68765625 3.88671875 13.0078125 C3.92410156 13.99523438 3.96148437 14.98265625 4 16 C3.01 16.33 2.02 16.66 1 17 C1 13.7 1 10.4 1 7 C0.34 7 -0.32 7 -1 7 C-0.67 4.69 -0.34 2.38 0 0 Z " fill="#F269BA" transform="translate(44,20)"/>
<path d="M0 0 C0.33 0 0.66 0 1 0 C1.3690205 9.41002278 1.3690205 9.41002278 -1 14 C-1.99 13.01 -2.98 12.02 -4 11 C-3.34 10.67 -2.68 10.34 -2 10 C-2 8.68 -2 7.36 -2 6 C-2.66 6 -3.32 6 -4 6 C-3.67 5.34 -3.34 4.68 -3 4 C-2.34 4.33 -1.68 4.66 -1 5 C-0.67 3.35 -0.34 1.7 0 0 Z " fill="#B37AD2" transform="translate(20,48)"/>
<path d="M0 0 C0.66 0 1.32 0 2 0 C2 0.66 2 1.32 2 2 C3.32 2 4.64 2 6 2 C6.33 1.34 6.66 0.68 7 0 C7.99 0.99 8.98 1.98 10 3 C5.35150485 5.3992233 1.08913926 5.19957409 -4 5 C-1 3 -1 3 1 3 C0.67 2.01 0.34 1.02 0 0 Z " fill="#AF77CE" transform="translate(52,16)"/>
</svg>
